PathFileType	4	(X/Y/Z)	/Users/itak/Documents/Research/Walk-IL/dataset/trc/00060_00006.trc
DataRate	CameraRate	NumFrames	NumMarkers	Units	OrigDataRate	OrigDataStartFrame	OrigNumFrames
100.000000	100.000000	4	53	mm	100.000000	455	729
Frame#	Time	RPSI			LPSI			L3			STRN			T10			C7			CLAV			RBAK			LBAK			LSHO			LUPA			LAEL			LAOL			LWTS			LWPS			LFRA			LIFD			LHPS			LHTS			RSHO			RUPA			RAEL			RAOL			RWTS			RWPS			RFRA			RIFD			RHTS			RHPS			RBHD			LFHD			RFHD			LBHD			LHIP			RHIP			RASI			LASI			LKNE			LTHI			LANK			LTIP			LTOE			LMT1			LMT5			LHEE			RKNE			RTHI			RANK			RTIP			RTOE			RMT1			RMT5			RHEE			
		X1	Y1	Z1	X2	Y2	Z2	X3	Y3	Z3	X4	Y4	Z4	X5	Y5	Z5	X6	Y6	Z6	X7	Y7	Z7	X8	Y8	Z8	X9	Y9	Z9	X10	Y10	Z10	X11	Y11	Z11	X12	Y12	Z12	X13	Y13	Z13	X14	Y14	Z14	X15	Y15	Z15	X16	Y16	Z16	X17	Y17	Z17	X18	Y18	Z18	X19	Y19	Z19	X20	Y20	Z20	X21	Y21	Z21	X22	Y22	Z22	X23	Y23	Z23	X24	Y24	Z24	X25	Y25	Z25	X26	Y26	Z26	X27	Y27	Z27	X28	Y28	Z28	X29	Y29	Z29	X30	Y30	Z30	X31	Y31	Z31	X32	Y32	Z32	X33	Y33	Z33	X34	Y34	Z34	X35	Y35	Z35	X36	Y36	Z36	X37	Y37	Z37	X38	Y38	Z38	X39	Y39	Z39	X40	Y40	Z40	X41	Y41	Z41	X42	Y42	Z42	X43	Y43	Z43	X44	Y44	Z44	X45	Y45	Z45	X46	Y46	Z46	X47	Y47	Z47	X48	Y48	Z48	X49	Y49	Z49	X50	Y50	Z50	X51	Y51	Z51	X52	Y52	Z52	X53	Y53	Z53	

456	4.55	-255.8211364746094	997.5699462890625	-626.0616455078125	-145.6198577880859	988.3231201171875	-493.8231811523438	-192.1328582763672	1056.838256835938	-549.3272094726562	-410.9070129394531	1244.765625	-420.7212524414062	-169.3402099609375	1186.2158203125	-542.702392578125	-224.8101043701172	1452.523193359375	-506.4132080078125	-197.8428955078125	1317.232788085938	-602.9286499023438	-383.8665771484375	1359.311279296875	-432.3360595703125	-157.8499450683594	1414.805541992188	-427.9682312011719	-218.89453125	1413.605712890625	-319.0440368652344	-167.4649200439453	1290.854248046875	-255.5145721435547	-182.9404907226562	1079.338989257812	-208.8273162841797	-161.3938446044922	1054.298950195312	-310.7679443359375	-393.5294799804688	930.8487548828125	-253.4706573486328	-337.0769653320312	878.8341674804688	-217.9808959960938	-247.7719573974609	988.6027221679688	-199.3326873779297	-506.2751770019531	784.4578247070312	-286.3294372558594	-405.9423522949219	826.2872924804688	-218.9662780761719	-453.6604919433594	869.6747436523438	-251.9763793945312	-354.7056579589844	1420.246826171875	-636.3487548828125	-361.5038146972656	1362.231201171875	-704.2312622070312	-303.5970764160156	1133.144409179688	-804.9767456054688	-280.6494140625	1092.03271484375	-717.724853515625	-368.7859191894531	848.1860961914062	-767.553955078125	-321.423828125	858.918212890625	-839.6222534179688	-304.764892578125	1051.836669921875	-826.587646484375	-308.0975646972656	665.2406005859375	-787.1922607421875	-355.6714477539062	740.9667358398438	-779.7705078125	-325.9565124511719	764.5286865234375	-846.548828125	-262.8418884277344	1637.591064453125	-482.5302429199219	-451.2096557617188	1639.004516601562	-378.0297546386719	-339.4243774414062	1643.940795898438	-321.303955078125	-388.6839599609375	1623.008666992188	-536.9185180664062	-168.2901916503906	920.2588500976562	-359.0742797851562	-361.0701293945312	932.1386108398438	-649.3585205078125	-445.2838439941406	951.632568359375	-558.0547485351562	-292.5687561035156	927.4572143554688	-337.799560546875	-243.5168151855469	462.9847717285156	-485.8602600097656	-203.7421417236328	598.371826171875	-426.4330444335938	-73.34431457519531	54.41686630249023	-630.410888671875	-151.5808715820312	239.4491424560547	-557.0316772460938	-275.9378967285156	39.17885208129883	-614.7409057617188	-234.5495758056641	36.38644790649414	-671.1023559570312	-169.8824920654297	40.08871078491211	-579.7113037109375	-33.14700698852539	68.95684814453125	-712.6004638671875	-549.747802734375	530.6677856445312	-505.0911865234375	-483.5320739746094	782.9150390625	-582.2171020507812	-669.4097900390625	49.5736198425293	-469.1796264648438	-587.1812744140625	413.7277526855469	-498.7424621582031	-744.7291870117188	144.2610931396484	-295.8078002929688	-683.2059326171875	117.3212585449219	-313.7077026367188	-745.1836547851562	101.4825820922852	-389.6204833984375	-599.1838989257812	31.61808013916016	-471.9145812988281	
457	4.56	-266.2896423339844	996.2496337890625	-621.5250854492188	-154.8058776855469	987.509521484375	-490.3379516601562	-201.9753112792969	1055.629272460938	-545.3897094726562	-419.7893371582031	1243.379150390625	-415.0506591796875	-179.0711669921875	1184.939208984375	-539.0402221679688	-234.5682220458984	1451.276977539062	-502.6118774414062	-208.2995452880859	1315.834716796875	-599.1585693359375	-392.9695739746094	1357.943115234375	-427.0887145996094	-166.9456939697266	1413.73828125	-424.6448974609375	-227.1447448730469	1412.638061523438	-315.244140625	-175.0846862792969	1290.034301757812	-251.8600921630859	-190.0562896728516	1078.619506835938	-204.6942749023438	-169.0989074707031	1053.406127929688	-306.5806884765625	-399.9746398925781	928.5947265625	-247.5255126953125	-342.9133605957031	877.0948486328125	-212.2571716308594	-254.2484588623047	987.4266967773438	-194.4263610839844	-511.9694213867188	781.4365844726562	-279.0508422851562	-411.4540710449219	824.1087036132812	-212.535888671875	-459.7219848632812	867.0765991210938	-245.4098968505859	-365.4956359863281	1418.665893554688	-631.4096069335938	-372.7438659667969	1360.631591796875	-699.1947631835938	-315.24560546875	1131.80810546875	-800.59814453125	-291.6526489257812	1090.686889648438	-713.6033935546875	-379.9598388671875	846.7073364257812	-763.0035400390625	-333.0906677246094	857.6195678710938	-835.4959106445312	-316.603759765625	1050.525146484375	-822.3427124023438	-317.6370849609375	663.5877685546875	-783.4323120117188	-366.6127014160156	739.5078125	-775.5084838867188	-337.5691223144531	763.2595825195312	-842.5607299804688	-272.4703063964844	1636.2861328125	-478.5628051757812	-459.7662353515625	1637.680786132812	-372.1754760742188	-347.4514770507812	1642.618774414062	-316.6017456054688	-398.8782958984375	1621.707641601562	-531.7046508789062	-175.8440704345703	919.5396118164062	-355.2484741210938	-371.7422180175781	930.48193359375	-643.4215087890625	-454.9744262695312	949.883544921875	-551.2492065429688	-299.8067932128906	926.3607177734375	-332.4956359863281	-248.3352355957031	462.0668640136719	-482.1737060546875	-209.1979064941406	597.6719970703125	-422.5493774414062	-73.68106842041016	55.85748291015625	-629.7095336914062	-153.9642028808594	239.7807159423828	-554.8677368164062	-275.8785400390625	39.10207366943359	-614.6226806640625	-234.6498870849609	36.65470504760742	-670.6807250976562	-170.0274658203125	40.04812622070312	-579.1737670898438	-33.56687927246094	71.85110473632812	-711.8629760742188	-557.8872680664062	528.86865234375	-498.273681640625	-492.9558410644531	781.067626953125	-575.6098022460938	-681.6907958984375	49.43949890136719	-454.0623168945312	-596.0695190429688	412.576904296875	-490.0604248046875	-753.845947265625	147.072021484375	-280.7788696289062	-692.8135375976562	119.4295959472656	-299.1431274414062	-755.8749389648438	102.9874038696289	-374.093017578125	-611.4601440429688	31.01924324035645	-457.511474609375	
458	4.57	-276.7488098144531	995.0330200195312	-616.80029296875	-164.156494140625	986.763916015625	-486.5464477539062	-211.9410858154297	1054.430908203125	-541.15234375	-428.7998352050781	1242.106567382812	-409.2696533203125	-188.9450225830078	1183.685913085938	-535.1480102539062	-244.4351196289062	1450.070922851562	-498.7459411621094	-218.8439178466797	1314.442016601562	-595.2509765625	-402.1628723144531	1356.67724609375	-421.7564086914062	-176.142578125	1412.731079101562	-421.2475891113281	-235.4992980957031	1411.80712890625	-311.3797302246094	-182.7942504882812	1289.369262695312	-248.1142730712891	-197.2079315185547	1078.042358398438	-200.5163879394531	-176.8451080322266	1052.692504882812	-302.3462219238281	-406.1799926757812	926.0689697265625	-241.4135284423828	-348.3792114257812	875.2387084960938	-206.3439025878906	-260.6763610839844	986.3104858398438	-189.4363403320312	-517.0712280273438	777.8833618164062	-271.4592590332031	-416.5277404785156	821.6842651367188	-205.9162139892578	-465.3951110839844	864.0780639648438	-238.6121978759766	-376.356689453125	1417.125854492188	-626.3917236328125	-384.0682983398438	1359.072021484375	-694.060791015625	-327.0908203125	1130.459228515625	-796.0671997070312	-302.8453369140625	1089.327514648438	-709.322021484375	-391.3473815917969	845.2384643554688	-758.23486328125	-344.9981384277344	856.309814453125	-831.1699829101562	-328.6546936035156	1049.200561523438	-817.9248657226562	-327.45263671875	661.9448852539062	-779.46630859375	-377.766357421875	738.0516357421875	-771.0234375	-349.4453735351562	761.9761962890625	-838.3643188476562	-282.1924743652344	1635.095947265625	-474.5249938964844	-468.3766174316406	1636.4140625	-366.2109375	-355.5206909179688	1641.367797851562	-311.8168640136719	-409.1687622070312	1620.505493164062	-526.3889770507812	-183.6301574707031	918.8229370117188	-351.2105407714844	-382.3935241699219	928.9683227539062	-637.3699951171875	-464.7226257324219	948.2306518554688	-544.3937377929688	-307.29296875	925.3047485351562	-327.0433349609375	-253.4451751708984	461.1723937988281	-478.4462280273438	-214.8982391357422	596.9796142578125	-418.5624694824219	-74.08718109130859	57.4434928894043	-628.9259033203125	-156.4996490478516	240.2113494873047	-552.6134033203125	-275.806396484375	39.03347015380859	-614.5104370117188	-234.7835845947266	36.94693756103516	-670.2427978515625	-170.1978454589844	40.02667999267578	-578.60498046875	-34.05192565917969	75.02494812011719	-711.0585327148438	-566.1947021484375	527.3685302734375	-490.9073181152344	-502.4575805664062	779.4723510742188	-568.6171264648438	-691.3931274414062	48.85153579711914	-441.1883850097656	-604.6407470703125	411.2942504882812	-481.3047180175781	-761.7842407226562	147.9988403320312	-267.9588928222656	-701.032958984375	120.0282821655273	-286.5694885253906	-764.6474609375	103.2327880859375	-361.0037841796875	-621.125732421875	30.30491256713867	-445.055908203125	
459	4.58	-287.1948852539062	993.9403686523438	-611.8663330078125	-173.6670532226562	986.1000366210938	-482.4072265625	-222.0306396484375	1053.225708007812	-536.572021484375	-437.9402770996094	1240.961547851562	-403.382568359375	-198.9702301025391	1182.468017578125	-531.0149536132812	-254.4058990478516	1448.917846679688	-494.8170776367188	-229.4761199951172	1313.066284179688	-591.203369140625	-411.4541625976562	1355.526123046875	-416.3429870605469	-185.4535522460938	1411.788696289062	-417.7803039550781	-243.96044921875	1411.11572265625	-307.4508666992188	-190.5884246826172	1288.862915039062	-244.2886962890625	-204.3696899414062	1077.603393554688	-196.310546875	-184.6015777587891	1052.17431640625	-298.1012878417969	-412.1124267578125	923.2924194335938	-235.1370239257812	-353.449462890625	873.2701416015625	-200.2788543701172	-267.0275268554688	985.2634887695312	-184.3820190429688	-521.5968627929688	773.8466796875	-263.5806579589844	-421.1459350585938	819.033447265625	-199.1548461914062	-470.6474304199219	860.7103881835938	-231.5840911865234	-387.2856140136719	1415.639526367188	-621.3021240234375	-395.4762268066406	1357.563110351562	-688.8336181640625	-339.1441040039062	1129.100952148438	-791.3782348632812	-314.2274475097656	1087.961181640625	-704.875732421875	-402.9269104003906	843.7822875976562	-753.2392578125	-357.1574401855469	854.9942016601562	-826.6363525390625	-340.9226684570312	1047.866455078125	-813.3251953125	-337.8190307617188	660.3740234375	-775.3033447265625	-389.1286315917969	736.5997924804688	-766.3051147460938	-361.5892333984375	760.681640625	-833.94775390625	-292.0075378417969	1634.037231445312	-470.4190368652344	-477.0370788574219	1635.225219726562	-360.1339416503906	-363.6248474121094	1640.204956054688	-306.95263671875	-419.5526428222656	1619.41748046875	-520.9661865234375	-191.666015625	918.1178588867188	-346.9288330078125	-393.006591796875	927.6215209960938	-631.1885986328125	-474.5507507324219	946.701171875	-537.49560546875	-315.0728759765625	924.2952270507812	-321.4388122558594	-258.8925476074219	460.3005676269531	-474.6817932128906	-220.8834381103516	596.3062133789062	-414.4789733886719	-74.58919525146484	59.1900634765625	-628.0813598632812	-159.2001647949219	240.7573852539062	-550.2662963867188	-275.7181701660156	38.97669982910156	-614.4072875976562	-234.9601440429688	37.27088165283203	-669.7924194335938	-170.4001617431641	40.01924133300781	-578.0135498046875	-34.6408576965332	78.509033203125	-710.1958618164062	-574.6495361328125	526.1638793945312	-482.9716186523438	-512.01513671875	778.1572875976562	-561.2200317382812	-698.7001953125	47.79426193237305	-430.6033020019531	-612.8658447265625	409.8672180175781	-472.4558410644531	-768.6259155273438	146.9151153564453	-257.2250366210938	-707.9533081054688	118.9968566894531	-275.9319763183594	-771.6370239257812	102.1418762207031	-350.2783203125	-628.3577880859375	29.48168182373047	-434.6709289550781	
